<svg width="792" height="256" viewBox="0 0 792 256" fill="none" xmlns="http://www.w3.org/2000/svg">
<path d="M0 20.8731C0 9.3452 9.34518 0 20.873 0C32.4009 0 41.7461 9.34518 41.7461 20.873V233.234C41.7461 244.761 32.4009 254.107 20.873 254.107C9.34518 254.107 0 244.761 0 233.234V20.8731Z" fill="black"/>
<path d="M128.23 7.9631C131.458 2.99648 136.98 0 142.903 0C156.789 0 165.145 15.3961 157.577 27.0386L114.102 93.9225C101.007 114.069 101.007 140.038 114.102 160.184L157.577 227.068C165.145 238.71 156.789 254.107 142.903 254.107C136.98 254.107 131.458 251.11 128.23 246.143L79.1607 170.652C61.928 144.141 61.928 109.966 79.1607 83.4542L128.23 7.9631Z" fill="black"/>
<path d="M193 127.053C193 137.078 184.874 145.204 174.85 145.204C164.825 145.204 156.699 137.078 156.699 127.053C156.699 117.029 164.825 108.903 174.85 108.903C184.874 108.903 193 117.029 193 127.053Z" fill="black"/>
<path d="M297 255.625C282.05 255.625 268.617 252.483 256.7 246.2C245 239.7 235.683 230.275 228.75 217.925C222.033 205.575 218.675 190.408 218.675 172.425V92.475C218.675 87.7083 220.192 83.8083 223.225 80.775C226.475 77.525 230.483 75.9 235.25 75.9C240.017 75.9 243.917 77.525 246.95 80.775C250.2 83.8083 251.825 87.7083 251.825 92.475V172.425C251.825 184.558 254.1 194.633 258.65 202.65C263.2 210.45 269.375 216.3 277.175 220.2C284.975 223.883 293.75 225.725 303.5 225.725C312.817 225.725 321.05 223.883 328.2 220.2C335.567 216.517 341.417 211.533 345.75 205.25C350.083 198.967 352.25 191.925 352.25 184.125H372.725C372.725 197.558 369.367 209.692 362.65 220.525C356.15 231.358 347.158 239.917 335.675 246.2C324.408 252.483 311.517 255.625 297 255.625ZM368.825 254C364.058 254 360.05 252.483 356.8 249.45C353.767 246.2 352.25 242.192 352.25 237.425V92.475C352.25 87.4917 353.767 83.4833 356.8 80.45C360.05 77.4167 364.058 75.9 368.825 75.9C373.808 75.9 377.817 77.4167 380.85 80.45C383.883 83.4833 385.4 87.4917 385.4 92.475V237.425C385.4 242.192 383.883 246.2 380.85 249.45C377.817 252.483 373.808 254 368.825 254Z" fill="black"/>
<path d="M510.408 255.3C493.508 255.3 478.342 251.4 464.908 243.6C451.475 235.583 440.858 224.75 433.058 211.1C425.258 197.45 421.25 182.067 421.033 164.95V16.75C421.033 11.7667 422.55 7.75833 425.583 4.725C428.833 1.69166 432.842 0.174995 437.608 0.174995C442.592 0.174995 446.6 1.69166 449.633 4.725C452.667 7.75833 454.183 11.7667 454.183 16.75V104.5C461.767 95.4 470.867 88.25 481.483 83.05C492.317 77.6333 504.125 74.925 516.908 74.925C532.725 74.925 546.917 78.9333 559.483 86.95C572.05 94.75 581.908 105.475 589.058 119.125C596.425 132.558 600.108 147.833 600.108 164.95C600.108 182.067 596.1 197.45 588.083 211.1C580.283 224.75 569.667 235.583 556.233 243.6C542.8 251.4 527.525 255.3 510.408 255.3ZM510.408 226.05C521.458 226.05 531.316 223.45 539.983 218.25C548.65 212.833 555.475 205.467 560.458 196.15C565.658 186.833 568.258 176.433 568.258 164.95C568.258 153.25 565.658 142.85 560.458 133.75C555.475 124.65 548.65 117.5 539.983 112.3C531.316 106.883 521.458 104.175 510.408 104.175C499.575 104.175 489.717 106.883 480.833 112.3C472.167 117.5 465.342 124.65 460.358 133.75C455.375 142.85 452.883 153.25 452.883 164.95C452.883 176.433 455.375 186.833 460.358 196.15C465.342 205.467 472.167 212.833 480.833 218.25C489.717 223.45 499.575 226.05 510.408 226.05Z" fill="black"/>
<path d="M646.624 254C641.857 254 637.849 252.483 634.599 249.45C631.565 246.2 630.049 242.192 630.049 237.425V92.8C630.049 87.8167 631.565 83.8083 634.599 80.775C637.849 77.7417 641.857 76.225 646.624 76.225C651.607 76.225 655.615 77.7417 658.649 80.775C661.682 83.8083 663.199 87.8167 663.199 92.8V237.425C663.199 242.192 661.682 246.2 658.649 249.45C655.615 252.483 651.607 254 646.624 254ZM646.624 47.3C640.774 47.3 635.682 45.2417 631.349 41.125C627.232 36.7917 625.174 31.7 625.174 25.85C625.174 20 627.232 15.0167 631.349 10.9C635.682 6.56666 640.774 4.4 646.624 4.4C652.474 4.4 657.457 6.56666 661.574 10.9C665.907 15.0167 668.074 20 668.074 25.85C668.074 31.7 665.907 36.7917 661.574 41.125C657.457 45.2417 652.474 47.3 646.624 47.3Z" fill="black"/>
<path d="M766.795 254C755.962 254 746.212 251.292 737.545 245.875C728.878 240.242 722.053 232.658 717.07 223.125C712.087 213.592 709.595 202.867 709.595 190.95V35.925C709.595 31.1583 711.112 27.2583 714.145 24.225C717.178 21.1917 721.078 19.675 725.845 19.675C730.612 19.675 734.512 21.1917 737.545 24.225C740.578 27.2583 742.095 31.1583 742.095 35.925V190.95C742.095 199.617 744.478 206.875 749.245 212.725C754.012 218.575 759.862 221.5 766.795 221.5H777.845C781.745 221.5 784.995 223.017 787.595 226.05C790.412 229.083 791.82 232.983 791.82 237.75C791.82 242.517 789.978 246.417 786.295 249.45C782.828 252.483 778.278 254 772.645 254H766.795ZM694.645 110.675C690.095 110.675 686.412 109.375 683.595 106.775C680.778 104.175 679.37 100.925 679.37 97.025C679.37 92.6917 680.778 89.225 683.595 86.625C686.412 84.025 690.095 82.725 694.645 82.725H769.72C774.27 82.725 777.953 84.025 780.77 86.625C783.587 89.225 784.995 92.6917 784.995 97.025C784.995 100.925 783.587 104.175 780.77 106.775C777.953 109.375 774.27 110.675 769.72 110.675H694.645Z" fill="black"/>
</svg>
